<svg version="1.1" xmlns="http://www.w3.org/2000/svg" viewBox="0 0 1185 768" width="1185" height="768">
  <!-- svg-source:excalidraw -->

  <defs>
    <style class="style-fonts">
      @font-face {
        font-family: "Virgil";
        src: url("https://excalidraw.com/Virgil.woff2");
      }

      @font-face {
        font-family: "Cascadia";
        src: url("https://excalidraw.com/Cascadia.woff2");
      }

      @font-face {
        font-family: "Assistant";
        src: url("https://excalidraw.com/Assistant-Regular.woff2");
      }
    </style>

  </defs>
  <rect x="0" y="0" width="1185" height="768" fill="#ffffff"></rect>
  <g stroke-linecap="round" transform="translate(416 101) rotate(0 185.5 46)">
    <path
      d="M23 0 C119.83 4.12, 222.64 0.72, 348 0 C362.14 2.87, 371.25 5.19, 371 23 C373.64 36.22, 367.36 53.05, 371 69 C373.19 82.76, 360.49 94.23, 348 92 C277.43 91.53, 205.19 91.6, 23 92 C4.59 90.09, -1.15 84.85, 0 69 C0.39 54.18, 0.46 44.21, 0 23 C2.88 6.67, 8.27 -2.09, 23 0"
      stroke="none" stroke-width="0" fill="#a5d8ff"></path>
    <path
      d="M23 0 C138.62 -3.04, 251.29 -2.4, 348 0 M23 0 C92.98 -0.31, 162.54 -0.35, 348 0 M348 0 C362.01 0.82, 372.31 9.5, 371 23 M348 0 C362.6 1.79, 370.21 7.75, 371 23 M371 23 C369.14 34.03, 371.83 46.39, 371 69 M371 23 C371.3 39.1, 370.26 55.26, 371 69 M371 69 C371.41 84.14, 361.48 92.51, 348 92 M371 69 C373.18 82.43, 362.07 92.01, 348 92 M348 92 C268.17 91.61, 187.28 91.72, 23 92 M348 92 C278.36 90.45, 207.2 91.05, 23 92 M23 92 C6.3 93.94, -1.3 84.26, 0 69 M23 92 C6.08 91.27, -2.1 86.38, 0 69 M0 69 C1.24 55.72, 0.11 46.79, 0 23 M0 69 C0.37 50.25, 0.33 31.79, 0 23 M0 23 C-1.25 8.57, 6.13 0.09, 23 0 M0 23 C0.44 9.55, 8.3 -2.08, 23 0"
      stroke="#1e1e1e" stroke-width="2" fill="none"></path>
  </g>
  <g transform="translate(568.31640625 135.5) rotate(0 33.18359375 11.5)"><text x="33.18359375" y="18.400390625"
      font-family="Helvetica, Segoe UI Emoji" font-size="20px" fill="#1e1e1e" text-anchor="middle"
      style="white-space: pre;" direction="ltr" dominant-baseline="alphabetic">#a5d8ff</text></g>
  <g stroke-linecap="round" transform="translate(10 10) rotate(0 582.5 374)">
    <path
      d="M32 0 C437.94 1.27, 845.13 0.39, 1133 0 M32 0 C321.53 2.54, 611.05 3, 1133 0 M1133 0 C1152.36 -0.89, 1163.43 10.55, 1165 32 M1133 0 C1154.04 -1.63, 1165.51 9.38, 1165 32 M1165 32 C1167.89 282.17, 1167.66 531.99, 1165 716 M1165 32 C1166.07 261.94, 1165.83 491.32, 1165 716 M1165 716 C1166.08 736.91, 1152.76 747.19, 1133 748 M1165 716 C1167.2 737.4, 1153.32 747.25, 1133 748 M1133 748 C765.58 744.79, 397.7 744.27, 32 748 M1133 748 C706.4 749.66, 280.26 749.39, 32 748 M32 748 C10.1 749.4, -0.41 737.67, 0 716 M32 748 C11.23 747.24, -1.08 738.32, 0 716 M0 716 C0.54 509.9, 1.03 303.7, 0 32 M0 716 C-2.36 499.66, -2.49 282.66, 0 32 M0 32 C-1.82 12.09, 10.49 0.99, 32 0 M0 32 C1.06 10.89, 10.68 -1.71, 32 0"
      stroke="#1e1e1e" stroke-width="2" fill="none"></path>
  </g>
  <g stroke-linecap="round" transform="translate(416.5 204) rotate(0 185.5 46)">
    <path
      d="M23 0 C96.57 -0.29, 171.99 0.94, 348 0 M23 0 C139.52 -1.46, 256.2 -0.44, 348 0 M348 0 C364.2 0.53, 372.31 7.96, 371 23 M348 0 C361.59 -0.85, 371.57 8.61, 371 23 M371 23 C369.26 40.84, 370.83 56.48, 371 69 M371 23 C370.93 32.72, 369.67 43.96, 371 69 M371 69 C369.35 82.69, 363.87 91.69, 348 92 M371 69 C372.79 86.39, 361.48 94.08, 348 92 M348 92 C279.17 94.38, 207.12 92.77, 23 92 M348 92 C253.34 91.2, 158.68 90.56, 23 92 M23 92 C6.9 92.11, 1 86.24, 0 69 M23 92 C5.75 92.31, 1.5 86.51, 0 69 M0 69 C-0.15 57.55, 0.25 47.08, 0 23 M0 69 C-1.14 56.26, -0.79 41.05, 0 23 M0 23 C0.95 8.1, 6.34 0.65, 23 0 M0 23 C-2.23 8.55, 5.99 0.84, 23 0"
      stroke="#1e1e1e" stroke-width="2" fill="none"></path>
  </g>
  <g stroke-opacity="0.6" fill-opacity="0.6" transform="translate(515.2763671875 238.5) rotate(0 86.7236328125 11.5)">
    <text x="86.7236328125" y="18.400390625" font-family="Helvetica, Segoe UI Emoji" font-size="20px" fill="#1e1e1e"
      text-anchor="middle" style="white-space: pre;" direction="ltr" dominant-baseline="alphabetic">Add another
      color...</text></g>
  <g stroke-linecap="round">
    <g transform="translate(14 127) rotate(0 71.5 -56.5)">
      <path
        d="M0.74 -0.38 C24.72 -19.36, 119.37 -94.2, 143.13 -113.08 M-0.33 -1.63 C23.57 -20.47, 118.42 -93.07, 142.24 -111.58"
        stroke="#1e1e1e" stroke-width="2" fill="none"></path>
    </g>
  </g>
  <mask></mask>
  <g transform="translate(17 18.30000000000001) rotate(0 48.46875 9.200000000000003)"><text x="0" y="14.720312499999999"
      font-family="Helvetica, Segoe UI Emoji" font-size="16px" fill="#1e1e1e" text-anchor="start"
      style="white-space: pre;" direction="ltr" dominant-baseline="alphabetic">Github corner</text></g>
  <g stroke-linecap="round">
    <g transform="translate(428 113) rotate(0 -0.5 34)">
      <path d="M0.41 -1.02 C0.21 10.25, -1.27 56.67, -1.71 68.35" stroke="#1e1e1e" stroke-width="2.5" fill="none"
        stroke-dasharray="8 10"></path>
    </g>
  </g>
  <mask></mask>
  <g stroke-linecap="round">
    <g transform="translate(436 114) rotate(0 0 31.5)">
      <path d="M-1.05 -0.72 C-1.17 10.03, -0.57 53.21, -0.27 63.66" stroke="#1e1e1e" stroke-width="2.5" fill="none"
        stroke-dasharray="8 10"></path>
    </g>
  </g>
  <mask></mask>
  <g stroke-linecap="round">
    <g transform="translate(427 217) rotate(0 0 30.5)">
      <path d="M0.59 0.78 C0.73 11.23, 0.64 52.03, 0.72 62" stroke="#1e1e1e" stroke-width="2.5" fill="none"
        stroke-dasharray="8 10"></path>
    </g>
  </g>
  <mask></mask>
  <g stroke-linecap="round">
    <g transform="translate(438 220) rotate(0 -0.5 32)">
      <path d="M-0.06 -0.89 C-0.05 9.66, 0.1 53.18, -0.13 64.11" stroke="#1e1e1e" stroke-width="2.5" fill="none"
        stroke-dasharray="8 10"></path>
    </g>
  </g>
  <mask></mask>
</svg>